<svg xmlns="http://www.w3.org/2000/svg" xmlns:xlink="http://www.w3.org/1999/xlink" width="500" zoomAndPan="magnify" viewBox="0 0 375 374.999991" height="500" preserveAspectRatio="xMidYMid meet" version="1.0"><defs><clipPath id="id1"><path d="M 0 0 L 371.25 0 L 371.25 371.25 L 0 371.25 Z M 0 0 " clip-rule="nonzero"/></clipPath></defs><g clip-path="url(#id1)"><path fill="#f472b6" d="M 340.3125 0 L 30.9375 0 C 13.878906 0 0 13.878906 0 30.9375 L 0 266.0625 C 0 283.121094 13.878906 297 30.9375 297 L 152.953125 297 L 143.671875 334.125 L 99 334.125 C 95.578125 334.125 92.8125 336.898438 92.8125 340.3125 C 92.8125 357.371094 106.691406 371.25 123.75 371.25 L 247.5 371.25 C 264.558594 371.25 278.4375 357.371094 278.4375 340.3125 C 278.4375 336.898438 275.671875 334.125 272.25 334.125 L 227.578125 334.125 L 218.296875 297 L 340.3125 297 C 357.371094 297 371.25 283.121094 371.25 266.0625 L 371.25 30.9375 C 371.25 13.878906 357.371094 0 340.3125 0 Z M 30.9375 12.375 L 340.3125 12.375 C 350.546875 12.375 358.875 20.703125 358.875 30.9375 L 358.875 247.5 L 12.375 247.5 L 12.375 30.9375 C 12.375 20.703125 20.703125 12.375 30.9375 12.375 Z M 247.5 358.875 L 123.75 358.875 C 115.679688 358.875 108.800781 353.703125 106.246094 346.5 L 265.003906 346.5 C 262.449219 353.703125 255.570312 358.875 247.5 358.875 Z M 214.824219 334.125 L 156.425781 334.125 L 165.707031 297 L 205.542969 297 Z M 340.3125 284.625 L 30.9375 284.625 C 20.703125 284.625 12.375 276.296875 12.375 266.0625 L 12.375 259.875 L 358.875 259.875 L 358.875 266.0625 C 358.875 276.296875 350.546875 284.625 340.3125 284.625 Z M 340.3125 284.625 " fill-opacity="1" fill-rule="nonzero"/></g><path fill="#f472b6" d="M 131.75 175.0625 L 107 199.8125 C 104.582031 202.230469 104.582031 206.144531 107 208.5625 L 131.75 233.3125 L 140.5 224.5625 L 120.125 204.1875 L 140.5 183.8125 Z M 131.75 175.0625 " fill-opacity="1" fill-rule="nonzero"/><path fill="#f472b6" d="M 162.109375 225.21875 L 199.242188 175.726562 L 209.140625 183.15625 L 172.007812 232.648438 Z M 162.109375 225.21875 " fill-opacity="1" fill-rule="nonzero"/><path fill="#f472b6" d="M 239.5 175.0625 L 230.75 183.8125 L 251.125 204.1875 L 230.75 224.5625 L 239.5 233.3125 L 264.25 208.5625 C 266.667969 206.144531 266.667969 202.230469 264.25 199.8125 Z M 239.5 175.0625 " fill-opacity="1" fill-rule="nonzero"/><path fill="#f472b6" d="M 123.75 111.375 L 133.167969 111.375 C 133.816406 113.210938 134.570312 115.019531 135.402344 116.777344 L 128.742188 123.441406 C 127.578125 124.605469 126.929688 126.175781 126.929688 127.816406 C 126.929688 129.453125 127.578125 131.03125 128.742188 132.191406 L 146.242188 149.695312 C 148.660156 152.113281 152.570312 152.113281 154.992188 149.695312 L 161.65625 143.035156 C 163.410156 143.871094 165.210938 144.621094 167.054688 145.269531 L 167.054688 154.6875 C 167.054688 158.101562 169.820312 160.875 173.242188 160.875 L 197.992188 160.875 C 201.414062 160.875 204.179688 158.101562 204.179688 154.6875 L 204.179688 145.269531 C 206.023438 144.621094 207.824219 143.871094 209.582031 143.035156 L 216.246094 149.695312 C 218.667969 152.113281 222.578125 152.113281 224.996094 149.695312 L 242.496094 132.191406 C 243.65625 131.027344 244.308594 129.453125 244.308594 127.816406 C 244.308594 126.175781 243.65625 124.597656 242.496094 123.441406 L 235.835938 116.777344 C 236.671875 115.019531 237.421875 113.210938 238.070312 111.375 L 247.5 111.375 C 250.921875 111.375 253.6875 108.601562 253.6875 105.1875 L 253.6875 80.4375 C 253.6875 77.023438 250.921875 74.25 247.5 74.25 L 238.082031 74.25 C 237.433594 72.414062 236.679688 70.605469 235.847656 68.847656 L 242.507812 62.183594 C 243.671875 61.019531 244.320312 59.449219 244.320312 57.808594 C 244.320312 56.171875 243.671875 54.59375 242.507812 53.433594 L 225.007812 35.929688 C 222.589844 33.511719 218.679688 33.511719 216.257812 35.929688 L 209.59375 42.589844 C 207.832031 41.757812 206.03125 41.011719 204.1875 40.355469 L 204.1875 30.9375 C 204.1875 27.523438 201.421875 24.75 198 24.75 L 173.25 24.75 C 169.828125 24.75 167.0625 27.523438 167.0625 30.9375 L 167.0625 40.355469 C 165.21875 41.003906 163.417969 41.753906 161.660156 42.589844 L 154.996094 35.9375 C 152.578125 33.519531 148.667969 33.519531 146.246094 35.9375 L 128.75 53.441406 C 127.585938 54.605469 126.9375 56.175781 126.9375 57.816406 C 126.9375 59.457031 127.585938 61.035156 128.75 62.191406 L 135.40625 68.855469 C 134.570312 70.613281 133.824219 72.417969 133.171875 74.257812 L 123.75 74.257812 C 120.328125 74.257812 117.5625 77.027344 117.5625 80.445312 L 117.5625 105.195312 C 117.5625 108.601562 120.328125 111.375 123.75 111.375 Z M 129.9375 86.625 L 137.746094 86.625 C 140.566406 86.625 143.03125 84.71875 143.734375 81.984375 C 144.75 78.0625 146.304688 74.3125 148.351562 70.847656 C 149.78125 68.414062 149.390625 65.320312 147.398438 63.328125 L 141.875 57.808594 L 150.621094 49.054688 L 156.148438 54.574219 C 158.140625 56.574219 161.246094 56.96875 163.671875 55.527344 C 167.128906 53.484375 170.875 51.9375 174.804688 50.921875 C 177.527344 50.222656 179.4375 47.753906 179.4375 44.933594 L 179.4375 37.125 L 191.8125 37.125 L 191.8125 44.933594 C 191.8125 47.753906 193.722656 50.21875 196.453125 50.921875 C 200.382812 51.9375 204.125 53.484375 207.585938 55.527344 C 210.003906 56.957031 213.117188 56.578125 215.109375 54.574219 L 220.632812 49.054688 L 229.382812 57.808594 L 223.859375 63.328125 C 221.863281 65.320312 221.46875 68.414062 222.90625 70.847656 C 224.953125 74.3125 226.503906 78.0625 227.519531 81.984375 C 228.226562 84.714844 230.6875 86.625 233.511719 86.625 L 241.3125 86.625 L 241.3125 99 L 233.503906 99 C 230.683594 99 228.21875 100.90625 227.515625 103.640625 C 226.5 107.5625 224.945312 111.3125 222.898438 114.777344 C 221.46875 117.210938 221.859375 120.304688 223.851562 122.296875 L 229.375 127.816406 L 220.628906 136.570312 L 215.101562 131.050781 C 213.109375 129.050781 210.011719 128.664062 207.578125 130.097656 C 204.121094 132.140625 200.375 133.6875 196.445312 134.703125 C 193.722656 135.402344 191.8125 137.871094 191.8125 140.691406 L 191.8125 148.5 L 179.4375 148.5 L 179.4375 140.691406 C 179.4375 137.871094 177.527344 135.40625 174.796875 134.703125 C 170.867188 133.6875 167.125 132.140625 163.664062 130.097656 C 161.238281 128.664062 158.132812 129.046875 156.140625 131.050781 L 150.617188 136.570312 L 141.867188 127.816406 L 147.390625 122.296875 C 149.386719 120.304688 149.78125 117.210938 148.34375 114.777344 C 146.296875 111.3125 144.746094 107.5625 143.730469 103.640625 C 143.023438 100.90625 140.566406 99 137.746094 99 L 129.9375 99 Z M 129.9375 86.625 " fill-opacity="1" fill-rule="nonzero"/><path fill="#f472b6" d="M 185.625 123.75 C 202.683594 123.75 216.5625 109.871094 216.5625 92.8125 C 216.5625 75.753906 202.683594 61.875 185.625 61.875 C 168.566406 61.875 154.6875 75.753906 154.6875 92.8125 C 154.6875 109.871094 168.566406 123.75 185.625 123.75 Z M 185.625 74.25 C 195.859375 74.25 204.1875 82.578125 204.1875 92.8125 C 204.1875 103.046875 195.859375 111.375 185.625 111.375 C 175.390625 111.375 167.0625 103.046875 167.0625 92.8125 C 167.0625 82.578125 175.390625 74.25 185.625 74.25 Z M 185.625 74.25 " fill-opacity="1" fill-rule="nonzero"/><path fill="#f472b6" d="M 99 49.5 L 111.375 49.5 L 111.375 61.875 L 99 61.875 Z M 99 49.5 " fill-opacity="1" fill-rule="nonzero"/><path fill="#f472b6" d="M 74.25 49.5 L 86.625 49.5 L 86.625 61.875 L 74.25 61.875 Z M 74.25 49.5 " fill-opacity="1" fill-rule="nonzero"/><path fill="#f472b6" d="M 49.5 49.5 L 61.875 49.5 L 61.875 61.875 L 49.5 61.875 Z M 49.5 49.5 " fill-opacity="1" fill-rule="nonzero"/><path fill="#f472b6" d="M 24.75 49.5 L 37.125 49.5 L 37.125 61.875 L 24.75 61.875 Z M 24.75 49.5 " fill-opacity="1" fill-rule="nonzero"/><path fill="#f472b6" d="M 24.75 74.25 L 37.125 74.25 L 37.125 86.625 L 24.75 86.625 Z M 24.75 74.25 " fill-opacity="1" fill-rule="nonzero"/><path fill="#f472b6" d="M 24.75 99 L 37.125 99 L 37.125 111.375 L 24.75 111.375 Z M 24.75 99 " fill-opacity="1" fill-rule="nonzero"/><path fill="#f472b6" d="M 24.75 123.75 L 37.125 123.75 L 37.125 136.125 L 24.75 136.125 Z M 24.75 123.75 " fill-opacity="1" fill-rule="nonzero"/><path fill="#f472b6" d="M 24.75 148.5 L 37.125 148.5 L 37.125 160.875 L 24.75 160.875 Z M 24.75 148.5 " fill-opacity="1" fill-rule="nonzero"/><path fill="#f472b6" d="M 24.75 173.25 L 37.125 173.25 L 37.125 185.625 L 24.75 185.625 Z M 24.75 173.25 " fill-opacity="1" fill-rule="nonzero"/><path fill="#f472b6" d="M 24.75 198 L 37.125 198 L 37.125 210.375 L 24.75 210.375 Z M 24.75 198 " fill-opacity="1" fill-rule="nonzero"/><path fill="#f472b6" d="M 49.5 198 L 61.875 198 L 61.875 210.375 L 49.5 210.375 Z M 49.5 198 " fill-opacity="1" fill-rule="nonzero"/><path fill="#f472b6" d="M 74.25 198 L 86.625 198 L 86.625 210.375 L 74.25 210.375 Z M 74.25 198 " fill-opacity="1" fill-rule="nonzero"/><path fill="#f472b6" d="M 284.625 198 L 297 198 L 297 210.375 L 284.625 210.375 Z M 284.625 198 " fill-opacity="1" fill-rule="nonzero"/><path fill="#f472b6" d="M 309.375 198 L 321.75 198 L 321.75 210.375 L 309.375 210.375 Z M 309.375 198 " fill-opacity="1" fill-rule="nonzero"/><path fill="#f472b6" d="M 334.125 198 L 346.5 198 L 346.5 210.375 L 334.125 210.375 Z M 334.125 198 " fill-opacity="1" fill-rule="nonzero"/><path fill="#f472b6" d="M 334.125 173.25 L 346.5 173.25 L 346.5 185.625 L 334.125 185.625 Z M 334.125 173.25 " fill-opacity="1" fill-rule="nonzero"/><path fill="#f472b6" d="M 334.125 148.5 L 346.5 148.5 L 346.5 160.875 L 334.125 160.875 Z M 334.125 148.5 " fill-opacity="1" fill-rule="nonzero"/><path fill="#f472b6" d="M 334.125 123.75 L 346.5 123.75 L 346.5 136.125 L 334.125 136.125 Z M 334.125 123.75 " fill-opacity="1" fill-rule="nonzero"/><path fill="#f472b6" d="M 334.125 99 L 346.5 99 L 346.5 111.375 L 334.125 111.375 Z M 334.125 99 " fill-opacity="1" fill-rule="nonzero"/><path fill="#f472b6" d="M 334.125 74.25 L 346.5 74.25 L 346.5 86.625 L 334.125 86.625 Z M 334.125 74.25 " fill-opacity="1" fill-rule="nonzero"/><path fill="#f472b6" d="M 334.125 49.5 L 346.5 49.5 L 346.5 61.875 L 334.125 61.875 Z M 334.125 49.5 " fill-opacity="1" fill-rule="nonzero"/><path fill="#f472b6" d="M 309.375 49.5 L 321.75 49.5 L 321.75 61.875 L 309.375 61.875 Z M 309.375 49.5 " fill-opacity="1" fill-rule="nonzero"/><path fill="#f472b6" d="M 284.625 49.5 L 297 49.5 L 297 61.875 L 284.625 61.875 Z M 284.625 49.5 " fill-opacity="1" fill-rule="nonzero"/><path fill="#f472b6" d="M 259.875 49.5 L 272.25 49.5 L 272.25 61.875 L 259.875 61.875 Z M 259.875 49.5 " fill-opacity="1" fill-rule="nonzero"/></svg>