<svg xmlns="http://www.w3.org/2000/svg" xmlns:xlink="http://www.w3.org/1999/xlink" width="1280" zoomAndPan="magnify" viewBox="0 0 960 374.999991" height="500" preserveAspectRatio="xMidYMid meet" version="1.0"><defs><clipPath id="id1"><path d="M 344.054688 112.5 L 616.304688 112.5 L 616.304688 375 L 344.054688 375 Z M 344.054688 112.5 " clip-rule="nonzero"/></clipPath><clipPath id="id2"><path d="M 630.683594 148.726562 L 702.683594 148.726562 L 702.683594 269.476562 L 630.683594 269.476562 Z M 630.683594 148.726562 " clip-rule="nonzero"/></clipPath><clipPath id="id3"><path d="M 251.21875 124.605469 L 329.21875 124.605469 L 329.21875 202.605469 L 251.21875 202.605469 Z M 251.21875 124.605469 " clip-rule="nonzero"/></clipPath><clipPath id="id4"><path d="M 736 162 L 791 162 L 791 216 L 736 216 Z M 736 162 " clip-rule="nonzero"/></clipPath><clipPath id="id5"><path d="M 751.042969 148.726562 L 804.074219 201.761719 L 764.300781 241.535156 L 711.265625 188.503906 Z M 751.042969 148.726562 " clip-rule="nonzero"/></clipPath><clipPath id="id6"><path d="M 751.042969 148.726562 L 804.074219 201.761719 L 764.300781 241.535156 L 711.265625 188.503906 Z M 751.042969 148.726562 " clip-rule="nonzero"/></clipPath><clipPath id="id7"><path d="M 735 161 L 792 161 L 792 217 L 735 217 Z M 735 161 " clip-rule="nonzero"/></clipPath><clipPath id="id8"><path d="M 751.042969 148.726562 L 804.074219 201.761719 L 764.300781 241.535156 L 711.265625 188.503906 Z M 751.042969 148.726562 " clip-rule="nonzero"/></clipPath><clipPath id="id9"><path d="M 751.042969 148.726562 L 804.074219 201.761719 L 764.300781 241.535156 L 711.265625 188.503906 Z M 751.042969 148.726562 " clip-rule="nonzero"/></clipPath><clipPath id="id10"><path d="M 737 174 L 779 174 L 779 215 L 737 215 Z M 737 174 " clip-rule="nonzero"/></clipPath><clipPath id="id11"><path d="M 751.042969 148.726562 L 804.074219 201.761719 L 764.300781 241.535156 L 711.265625 188.503906 Z M 751.042969 148.726562 " clip-rule="nonzero"/></clipPath><clipPath id="id12"><path d="M 751.042969 148.726562 L 804.074219 201.761719 L 764.300781 241.535156 L 711.265625 188.503906 Z M 751.042969 148.726562 " clip-rule="nonzero"/></clipPath><clipPath id="id13"><path d="M 736 173 L 780 173 L 780 216 L 736 216 Z M 736 173 " clip-rule="nonzero"/></clipPath><clipPath id="id14"><path d="M 751.042969 148.726562 L 804.074219 201.761719 L 764.300781 241.535156 L 711.265625 188.503906 Z M 751.042969 148.726562 " clip-rule="nonzero"/></clipPath><clipPath id="id15"><path d="M 751.042969 148.726562 L 804.074219 201.761719 L 764.300781 241.535156 L 711.265625 188.503906 Z M 751.042969 148.726562 " clip-rule="nonzero"/></clipPath><clipPath id="id16"><path d="M 739 185 L 768 185 L 768 214 L 739 214 Z M 739 185 " clip-rule="nonzero"/></clipPath><clipPath id="id17"><path d="M 751.042969 148.726562 L 804.074219 201.761719 L 764.300781 241.535156 L 711.265625 188.503906 Z M 751.042969 148.726562 " clip-rule="nonzero"/></clipPath><clipPath id="id18"><path d="M 751.042969 148.726562 L 804.074219 201.761719 L 764.300781 241.535156 L 711.265625 188.503906 Z M 751.042969 148.726562 " clip-rule="nonzero"/></clipPath><clipPath id="id19"><path d="M 738 184 L 769 184 L 769 215 L 738 215 Z M 738 184 " clip-rule="nonzero"/></clipPath><clipPath id="id20"><path d="M 751.042969 148.726562 L 804.074219 201.761719 L 764.300781 241.535156 L 711.265625 188.503906 Z M 751.042969 148.726562 " clip-rule="nonzero"/></clipPath><clipPath id="id21"><path d="M 751.042969 148.726562 L 804.074219 201.761719 L 764.300781 241.535156 L 711.265625 188.503906 Z M 751.042969 148.726562 " clip-rule="nonzero"/></clipPath><clipPath id="id22"><path d="M 735 198 L 755 198 L 755 218 L 735 218 Z M 735 198 " clip-rule="nonzero"/></clipPath><clipPath id="id23"><path d="M 751.042969 148.726562 L 804.074219 201.761719 L 764.300781 241.535156 L 711.265625 188.503906 Z M 751.042969 148.726562 " clip-rule="nonzero"/></clipPath><clipPath id="id24"><path d="M 751.042969 148.726562 L 804.074219 201.761719 L 764.300781 241.535156 L 711.265625 188.503906 Z M 751.042969 148.726562 " clip-rule="nonzero"/></clipPath><clipPath id="id25"><path d="M 735 198 L 756 198 L 756 219 L 735 219 Z M 735 198 " clip-rule="nonzero"/></clipPath><clipPath id="id26"><path d="M 751.042969 148.726562 L 804.074219 201.761719 L 764.300781 241.535156 L 711.265625 188.503906 Z M 751.042969 148.726562 " clip-rule="nonzero"/></clipPath><clipPath id="id27"><path d="M 751.042969 148.726562 L 804.074219 201.761719 L 764.300781 241.535156 L 711.265625 188.503906 Z M 751.042969 148.726562 " clip-rule="nonzero"/></clipPath><clipPath id="id28"><path d="M 667.046875 310 L 778.042969 310 L 778.042969 374.648438 L 667.046875 374.648438 Z M 667.046875 310 " clip-rule="nonzero"/></clipPath><clipPath id="id29"><path d="M 680 307.898438 L 702 307.898438 L 702 338 L 680 338 Z M 680 307.898438 " clip-rule="nonzero"/></clipPath><clipPath id="id30"><path d="M 251.21875 316 L 316.46875 316 L 316.46875 374.996094 L 251.21875 374.996094 Z M 251.21875 316 " clip-rule="nonzero"/></clipPath><clipPath id="id31"><path d="M 262 278.246094 L 306 278.246094 L 306 350 L 262 350 Z M 262 278.246094 " clip-rule="nonzero"/></clipPath><clipPath id="id32"><path d="M 200 192.984375 L 236.203125 192.984375 L 236.203125 230 L 200 230 Z M 200 192.984375 " clip-rule="nonzero"/></clipPath><clipPath id="id33"><path d="M 197 238 L 235 238 L 235 274.65625 L 197 274.65625 Z M 197 238 " clip-rule="nonzero"/></clipPath><clipPath id="id34"><path d="M 152.953125 204 L 208 204 L 208 260 L 152.953125 260 Z M 152.953125 204 " clip-rule="nonzero"/></clipPath></defs><path fill="#f472b6" d="M 362.835938 131.25 L 372.222656 131.25 L 372.222656 140.625 L 362.835938 140.625 Z M 362.835938 131.25 " fill-opacity="1" fill-rule="nonzero"/><path fill="#f472b6" d="M 381.609375 131.25 L 390.996094 131.25 L 390.996094 140.625 L 381.609375 140.625 Z M 381.609375 131.25 " fill-opacity="1" fill-rule="nonzero"/><path fill="#f472b6" d="M 400.382812 131.25 L 409.773438 131.25 L 409.773438 140.625 L 400.382812 140.625 Z M 400.382812 131.25 " fill-opacity="1" fill-rule="nonzero"/><g clip-path="url(#id1)"><path fill="#f472b6" d="M 597.523438 112.5 L 362.835938 112.5 C 362.21875 112.5 361.605469 112.53125 360.996094 112.59375 C 360.382812 112.652344 359.777344 112.742188 359.171875 112.863281 C 358.570312 112.984375 357.976562 113.132812 357.386719 113.3125 C 356.796875 113.492188 356.222656 113.699219 355.652344 113.933594 C 355.085938 114.167969 354.53125 114.429688 353.988281 114.71875 C 353.445312 115.011719 352.917969 115.324219 352.410156 115.667969 C 351.898438 116.007812 351.40625 116.371094 350.929688 116.761719 C 350.453125 117.152344 350 117.5625 349.566406 117.996094 C 349.128906 118.433594 348.71875 118.886719 348.328125 119.359375 C 347.9375 119.835938 347.570312 120.328125 347.230469 120.839844 C 346.886719 121.347656 346.574219 121.875 346.28125 122.414062 C 345.992188 122.957031 345.730469 123.511719 345.496094 124.078125 C 345.257812 124.644531 345.050781 125.222656 344.871094 125.808594 C 344.695312 126.398438 344.542969 126.992188 344.421875 127.59375 C 344.304688 128.195312 344.210938 128.800781 344.152344 129.414062 C 344.089844 130.023438 344.058594 130.636719 344.058594 131.25 L 344.058594 318.75 C 344.058594 319.363281 344.089844 319.976562 344.152344 320.585938 C 344.210938 321.199219 344.304688 321.804688 344.421875 322.40625 C 344.542969 323.007812 344.695312 323.601562 344.871094 324.191406 C 345.050781 324.777344 345.257812 325.355469 345.496094 325.921875 C 345.730469 326.488281 345.992188 327.042969 346.28125 327.585938 C 346.574219 328.125 346.886719 328.652344 347.230469 329.160156 C 347.570312 329.671875 347.9375 330.164062 348.328125 330.640625 C 348.71875 331.113281 349.128906 331.566406 349.566406 332.003906 C 350 332.4375 350.453125 332.847656 350.929688 333.238281 C 351.40625 333.625 351.898438 333.992188 352.410156 334.332031 C 352.917969 334.675781 353.445312 334.988281 353.988281 335.28125 C 354.53125 335.570312 355.085938 335.832031 355.652344 336.066406 C 356.222656 336.300781 356.796875 336.507812 357.386719 336.6875 C 357.976562 336.867188 358.570312 337.015625 359.171875 337.136719 C 359.777344 337.257812 360.382812 337.347656 360.996094 337.40625 C 361.605469 337.46875 362.21875 337.5 362.835938 337.5 L 445.597656 337.5 L 443.035156 365.625 L 428.546875 365.625 L 428.546875 375 L 531.808594 375 L 531.808594 365.625 L 517.320312 365.625 L 514.761719 337.5 L 597.523438 337.5 C 598.136719 337.5 598.75 337.46875 599.363281 337.40625 C 599.972656 337.347656 600.582031 337.257812 601.183594 337.136719 C 601.785156 337.015625 602.382812 336.867188 602.96875 336.6875 C 603.558594 336.507812 604.136719 336.300781 604.703125 336.066406 C 605.273438 335.832031 605.828125 335.570312 606.367188 335.28125 C 606.910156 334.988281 607.4375 334.675781 607.949219 334.332031 C 608.460938 333.992188 608.953125 333.628906 609.429688 333.238281 C 609.902344 332.847656 610.359375 332.4375 610.792969 332.003906 C 611.226562 331.566406 611.640625 331.113281 612.03125 330.640625 C 612.417969 330.164062 612.785156 329.671875 613.128906 329.160156 C 613.46875 328.652344 613.785156 328.125 614.074219 327.585938 C 614.363281 327.042969 614.628906 326.488281 614.863281 325.921875 C 615.097656 325.355469 615.304688 324.777344 615.484375 324.191406 C 615.664062 323.601562 615.8125 323.007812 615.933594 322.40625 C 616.054688 321.804688 616.144531 321.199219 616.207031 320.585938 C 616.265625 319.976562 616.296875 319.363281 616.296875 318.75 L 616.296875 131.25 C 616.296875 130.636719 616.265625 130.023438 616.207031 129.414062 C 616.144531 128.800781 616.054688 128.195312 615.933594 127.59375 C 615.8125 126.992188 615.664062 126.398438 615.484375 125.808594 C 615.304688 125.222656 615.097656 124.644531 614.863281 124.078125 C 614.628906 123.511719 614.363281 122.957031 614.074219 122.414062 C 613.785156 121.875 613.46875 121.347656 613.128906 120.839844 C 612.785156 120.328125 612.417969 119.835938 612.03125 119.359375 C 611.640625 118.886719 611.226562 118.433594 610.792969 117.996094 C 610.359375 117.5625 609.902344 117.152344 609.429688 116.761719 C 608.953125 116.371094 608.460938 116.007812 607.949219 115.667969 C 607.4375 115.324219 606.910156 115.011719 606.367188 114.71875 C 605.828125 114.429688 605.273438 114.167969 604.703125 113.933594 C 604.136719 113.699219 603.558594 113.492188 602.96875 113.3125 C 602.382812 113.132812 601.785156 112.984375 601.183594 112.863281 C 600.582031 112.742188 599.972656 112.652344 599.363281 112.59375 C 598.75 112.53125 598.136719 112.5 597.523438 112.5 Z M 362.835938 121.875 L 597.523438 121.875 C 598.140625 121.875 598.75 121.9375 599.351562 122.058594 C 599.957031 122.175781 600.542969 122.355469 601.113281 122.589844 C 601.683594 122.828125 602.222656 123.117188 602.734375 123.457031 C 603.246094 123.800781 603.722656 124.1875 604.15625 124.625 C 604.59375 125.058594 604.980469 125.53125 605.324219 126.042969 C 605.667969 126.554688 605.957031 127.09375 606.191406 127.664062 C 606.429688 128.234375 606.605469 128.816406 606.726562 129.421875 C 606.847656 130.023438 606.910156 130.632812 606.910156 131.25 L 606.910156 150 L 353.445312 150 L 353.445312 131.25 C 353.449219 130.632812 353.507812 130.023438 353.628906 129.421875 C 353.75 128.816406 353.929688 128.234375 354.164062 127.664062 C 354.402344 127.09375 354.691406 126.554688 355.03125 126.042969 C 355.375 125.53125 355.765625 125.058594 356.199219 124.625 C 356.636719 124.1875 357.109375 123.800781 357.621094 123.457031 C 358.132812 123.117188 358.675781 122.828125 359.242188 122.589844 C 359.8125 122.355469 360.398438 122.175781 361.003906 122.058594 C 361.609375 121.9375 362.21875 121.875 362.835938 121.875 Z M 606.910156 159.375 L 606.910156 290.625 L 353.445312 290.625 L 353.445312 159.375 Z M 507.894531 365.625 L 452.460938 365.625 L 455.023438 337.5 L 505.335938 337.5 Z M 597.523438 328.125 L 362.835938 328.125 C 362.21875 328.125 361.609375 328.0625 361.003906 327.941406 C 360.398438 327.824219 359.8125 327.644531 359.242188 327.410156 C 358.675781 327.171875 358.132812 326.882812 357.621094 326.542969 C 357.109375 326.199219 356.636719 325.8125 356.199219 325.375 C 355.765625 324.941406 355.375 324.46875 355.03125 323.957031 C 354.691406 323.445312 354.402344 322.90625 354.164062 322.335938 C 353.929688 321.765625 353.75 321.179688 353.628906 320.578125 C 353.507812 319.976562 353.449219 319.367188 353.445312 318.75 L 353.445312 300 L 606.910156 300 L 606.910156 318.75 C 606.910156 319.367188 606.847656 319.976562 606.726562 320.578125 C 606.605469 321.179688 606.429688 321.765625 606.191406 322.335938 C 605.957031 322.90625 605.667969 323.445312 605.324219 323.957031 C 604.980469 324.46875 604.59375 324.941406 604.15625 325.375 C 603.722656 325.8125 603.246094 326.199219 602.734375 326.542969 C 602.222656 326.882812 601.683594 327.171875 601.113281 327.410156 C 600.542969 327.644531 599.957031 327.824219 599.351562 327.941406 C 598.75 328.0625 598.140625 328.125 597.523438 328.125 Z M 597.523438 328.125 " fill-opacity="1" fill-rule="nonzero"/></g><path fill="#f472b6" d="M 475.484375 309.375 L 484.871094 309.375 L 484.871094 318.75 L 475.484375 318.75 Z M 475.484375 309.375 " fill-opacity="1" fill-rule="nonzero"/><path fill="#f472b6" d="M 367.527344 210.9375 L 376.914062 210.9375 L 376.914062 220.3125 L 367.527344 220.3125 Z M 367.527344 210.9375 " fill-opacity="1" fill-rule="nonzero"/><path fill="#f472b6" d="M 386.304688 210.9375 L 456.710938 210.9375 L 456.710938 220.3125 L 386.304688 220.3125 Z M 386.304688 210.9375 " fill-opacity="1" fill-rule="nonzero"/><path fill="#f472b6" d="M 367.527344 229.6875 L 376.914062 229.6875 L 376.914062 239.0625 L 367.527344 239.0625 Z M 367.527344 229.6875 " fill-opacity="1" fill-rule="nonzero"/><path fill="#f472b6" d="M 386.304688 229.6875 L 508.339844 229.6875 L 508.339844 239.0625 L 386.304688 239.0625 Z M 386.304688 229.6875 " fill-opacity="1" fill-rule="nonzero"/><path fill="#f472b6" d="M 367.527344 248.4375 L 376.914062 248.4375 L 376.914062 257.8125 L 367.527344 257.8125 Z M 367.527344 248.4375 " fill-opacity="1" fill-rule="nonzero"/><path fill="#f472b6" d="M 386.304688 248.4375 L 475.484375 248.4375 L 475.484375 257.8125 L 386.304688 257.8125 Z M 386.304688 248.4375 " fill-opacity="1" fill-rule="nonzero"/><path fill="#f472b6" d="M 367.527344 267.1875 L 376.914062 267.1875 L 376.914062 276.5625 L 367.527344 276.5625 Z M 367.527344 267.1875 " fill-opacity="1" fill-rule="nonzero"/><path fill="#f472b6" d="M 386.304688 267.1875 L 522.421875 267.1875 L 522.421875 276.5625 L 386.304688 276.5625 Z M 386.304688 267.1875 " fill-opacity="1" fill-rule="nonzero"/><path fill="#f472b6" d="M 368.902344 190.816406 L 378.289062 200.191406 L 384.929688 193.558594 L 378.859375 187.5 L 384.929688 181.441406 L 378.289062 174.808594 L 368.902344 184.183594 C 368.683594 184.402344 368.492188 184.640625 368.320312 184.894531 C 368.148438 185.152344 368.003906 185.421875 367.886719 185.707031 C 367.765625 185.992188 367.679688 186.285156 367.617188 186.585938 C 367.558594 186.886719 367.527344 187.191406 367.527344 187.5 C 367.527344 187.808594 367.558594 188.113281 367.617188 188.414062 C 367.679688 188.714844 367.765625 189.007812 367.886719 189.292969 C 368.003906 189.578125 368.148438 189.847656 368.320312 190.105469 C 368.492188 190.359375 368.683594 190.597656 368.902344 190.816406 Z M 368.902344 190.816406 " fill-opacity="1" fill-rule="nonzero"/><path fill="#f472b6" d="M 415.839844 193.558594 L 422.480469 200.191406 L 431.867188 190.816406 C 432.085938 190.597656 432.277344 190.359375 432.449219 190.105469 C 432.621094 189.847656 432.765625 189.578125 432.882812 189.292969 C 433 189.007812 433.089844 188.714844 433.152344 188.414062 C 433.210938 188.113281 433.242188 187.808594 433.242188 187.5 C 433.242188 187.191406 433.210938 186.886719 433.152344 186.585938 C 433.089844 186.285156 433 185.992188 432.882812 185.707031 C 432.765625 185.421875 432.621094 185.152344 432.449219 184.894531 C 432.277344 184.640625 432.085938 184.402344 431.867188 184.183594 L 422.480469 174.808594 L 415.839844 181.441406 L 421.910156 187.5 Z M 415.839844 193.558594 " fill-opacity="1" fill-rule="nonzero"/><path fill="#f472b6" d="M 391.238281 200.078125 L 400.625 171.957031 L 409.53125 174.921875 L 400.144531 203.042969 Z M 391.238281 200.078125 " fill-opacity="1" fill-rule="nonzero"/><path fill="#f472b6" d="M 517.730469 229.6875 L 545.890625 229.6875 L 545.890625 239.0625 L 517.730469 239.0625 Z M 517.730469 229.6875 " fill-opacity="1" fill-rule="nonzero"/><path fill="#f472b6" d="M 531.808594 267.1875 L 541.199219 267.1875 L 541.199219 276.5625 L 531.808594 276.5625 Z M 531.808594 267.1875 " fill-opacity="1" fill-rule="nonzero"/><path fill="#f472b6" d="M 550.585938 267.1875 L 559.972656 267.1875 L 559.972656 276.5625 L 550.585938 276.5625 Z M 550.585938 267.1875 " fill-opacity="1" fill-rule="nonzero"/><path fill="#f472b6" d="M 466.097656 210.9375 L 475.484375 210.9375 L 475.484375 220.3125 L 466.097656 220.3125 Z M 466.097656 210.9375 " fill-opacity="1" fill-rule="nonzero"/><g clip-path="url(#id2)"><path fill="#f472b6" d="M 689.246094 148.726562 L 644.128906 148.726562 C 636.726562 148.726562 630.707031 154.75 630.707031 162.148438 L 630.707031 256.042969 C 630.707031 263.445312 636.726562 269.46875 644.128906 269.46875 L 689.246094 269.46875 C 696.644531 269.46875 702.667969 263.445312 702.667969 256.042969 L 702.667969 162.148438 C 702.667969 154.75 696.644531 148.726562 689.246094 148.726562 Z M 634.617188 164.105469 L 698.757812 164.105469 L 698.757812 245.234375 L 634.617188 245.234375 Z M 644.128906 152.636719 L 689.246094 152.636719 C 693.820312 152.636719 697.652344 155.882812 698.554688 160.195312 L 634.820312 160.195312 C 635.722656 155.882812 639.554688 152.636719 644.128906 152.636719 Z M 689.246094 265.558594 L 644.128906 265.558594 C 638.882812 265.558594 634.617188 261.289062 634.617188 256.042969 L 634.617188 249.144531 L 698.757812 249.144531 L 698.757812 256.042969 C 698.757812 261.289062 694.492188 265.558594 689.246094 265.558594 Z M 689.246094 265.558594 " fill-opacity="1" fill-rule="nonzero"/></g><path fill="#f472b6" d="M 666.6875 251.660156 C 663.578125 251.660156 661.046875 254.191406 661.046875 257.300781 C 661.046875 260.410156 663.578125 262.941406 666.6875 262.941406 C 669.796875 262.941406 672.328125 260.410156 672.328125 257.300781 C 672.328125 254.191406 669.796875 251.660156 666.6875 251.660156 Z M 666.6875 259.03125 C 665.730469 259.03125 664.957031 258.253906 664.957031 257.300781 C 664.957031 256.34375 665.730469 255.566406 666.6875 255.566406 C 667.640625 255.566406 668.417969 256.34375 668.417969 257.300781 C 668.417969 258.253906 667.640625 259.03125 666.6875 259.03125 Z M 666.6875 259.03125 " fill-opacity="1" fill-rule="nonzero"/><g clip-path="url(#id3)"><path fill="#f472b6" d="M 329.226562 163.609375 C 329.226562 153.191406 325.167969 143.394531 317.800781 136.027344 C 310.433594 128.660156 300.640625 124.605469 290.222656 124.605469 C 279.800781 124.605469 270.007812 128.660156 262.640625 136.027344 C 255.273438 143.394531 251.21875 153.191406 251.21875 163.609375 C 251.21875 174.027344 255.273438 183.820312 262.640625 191.1875 C 270.007812 198.554688 279.800781 202.613281 290.222656 202.613281 C 300.640625 202.613281 310.433594 198.554688 317.800781 191.1875 C 325.167969 183.820312 329.226562 174.027344 329.226562 163.609375 Z M 253.816406 164.898438 L 269.769531 164.898438 C 269.855469 170.214844 270.496094 175.355469 271.628906 180.058594 C 267.722656 181.226562 263.996094 182.769531 260.515625 184.675781 C 256.515625 179.050781 254.074219 172.246094 253.816406 164.898438 Z M 260.515625 142.542969 C 263.996094 144.449219 267.722656 145.992188 271.628906 147.160156 C 270.496094 151.863281 269.855469 157.003906 269.769531 162.320312 L 253.816406 162.320312 C 254.074219 154.972656 256.515625 148.167969 260.515625 142.542969 Z M 326.625 162.320312 L 310.671875 162.320312 C 310.585938 157.003906 309.949219 151.863281 308.8125 147.160156 C 312.71875 145.992188 316.445312 144.445312 319.925781 142.542969 C 323.925781 148.167969 326.367188 154.972656 326.625 162.320312 Z M 308.097656 162.320312 L 291.507812 162.320312 L 291.507812 149.804688 C 296.613281 149.710938 301.59375 149.046875 306.332031 147.84375 C 307.40625 152.328125 308.011719 157.234375 308.097656 162.320312 Z M 291.507812 147.226562 L 291.507812 127.277344 C 295.648438 127.894531 299.558594 131.476562 302.632812 137.523438 C 303.835938 139.886719 304.851562 142.519531 305.675781 145.355469 C 301.148438 146.5 296.390625 147.132812 291.507812 147.226562 Z M 288.933594 127.277344 L 288.933594 147.226562 C 284.050781 147.132812 279.292969 146.5 274.769531 145.355469 C 275.589844 142.519531 276.605469 139.886719 277.808594 137.523438 C 280.882812 131.476562 284.792969 127.894531 288.933594 127.277344 Z M 288.933594 149.804688 L 288.933594 162.320312 L 272.34375 162.320312 C 272.433594 157.234375 273.035156 152.328125 274.109375 147.84375 C 278.851562 149.046875 283.828125 149.710938 288.933594 149.804688 Z M 272.34375 164.898438 L 288.933594 164.898438 L 288.933594 177.414062 C 283.828125 177.507812 278.851562 178.171875 274.109375 179.371094 C 273.035156 174.890625 272.433594 169.984375 272.34375 164.898438 Z M 288.933594 179.988281 L 288.933594 199.941406 C 284.792969 199.324219 280.882812 195.742188 277.808594 189.695312 C 276.605469 187.332031 275.589844 184.695312 274.769531 181.863281 C 279.292969 180.71875 284.050781 180.085938 288.933594 179.988281 Z M 291.507812 199.941406 L 291.507812 179.988281 C 296.390625 180.085938 301.148438 180.714844 305.675781 181.863281 C 304.851562 184.695312 303.835938 187.332031 302.632812 189.695312 C 299.558594 195.742188 295.648438 199.324219 291.507812 199.941406 Z M 291.507812 177.414062 L 291.507812 164.898438 L 308.097656 164.898438 C 308.011719 169.984375 307.40625 174.890625 306.332031 179.371094 C 301.59375 178.171875 296.613281 177.507812 291.507812 177.414062 Z M 310.671875 164.898438 L 326.625 164.898438 C 326.367188 172.246094 323.925781 179.050781 319.925781 184.675781 C 316.445312 182.769531 312.722656 181.226562 308.8125 180.058594 C 309.949219 175.355469 310.585938 170.214844 310.671875 164.898438 Z M 318.339844 140.472656 C 315.140625 142.191406 311.730469 143.59375 308.15625 144.667969 C 307.285156 141.664062 306.207031 138.871094 304.929688 136.355469 C 303.1875 132.929688 301.164062 130.203125 298.953125 128.242188 C 306.671875 130.148438 313.429688 134.519531 318.339844 140.472656 Z M 281.488281 128.242188 C 279.277344 130.203125 277.253906 132.929688 275.511719 136.355469 C 274.234375 138.871094 273.15625 141.664062 272.289062 144.667969 C 268.710938 143.59375 265.300781 142.191406 262.101562 140.472656 C 267.011719 134.519531 273.769531 130.148438 281.488281 128.242188 Z M 262.101562 186.746094 C 265.300781 185.027344 268.710938 183.625 272.289062 182.550781 C 273.15625 185.554688 274.234375 188.347656 275.511719 190.863281 C 277.253906 194.289062 279.277344 197.015625 281.488281 198.976562 C 273.769531 197.070312 267.011719 192.699219 262.101562 186.746094 Z M 298.953125 198.976562 C 301.164062 197.015625 303.1875 194.289062 304.929688 190.863281 C 306.207031 188.347656 307.285156 185.554688 308.15625 182.550781 C 311.730469 183.625 315.140625 185.027344 318.339844 186.746094 C 313.429688 192.699219 306.671875 197.070312 298.953125 198.976562 Z M 298.953125 198.976562 " fill-opacity="1" fill-rule="nonzero"/></g><g clip-path="url(#id4)"><g clip-path="url(#id5)"><g clip-path="url(#id6)"><path fill="#f687b3" d="M 737.195312 167.90625 C 736.738281 167.449219 736.449219 166.84375 736.375 166.203125 C 736.289062 165.433594 736.503906 164.675781 736.984375 164.066406 C 737.464844 163.457031 738.15625 163.070312 738.925781 162.972656 C 753.167969 161.226562 767.117188 166.003906 777.199219 176.085938 C 786.820312 185.707031 791.664062 199.046875 790.488281 212.683594 C 790.351562 214.273438 788.945312 215.472656 787.355469 215.347656 C 786.671875 215.296875 786.027344 215 785.546875 214.515625 C 784.945312 213.914062 784.644531 213.082031 784.714844 212.230469 C 785.742188 200.296875 781.503906 188.621094 773.085938 180.199219 C 764.261719 171.378906 752.050781 167.195312 739.582031 168.726562 C 738.695312 168.835938 737.824219 168.535156 737.195312 167.90625 " fill-opacity="1" fill-rule="nonzero"/></g></g></g><g clip-path="url(#id7)"><g clip-path="url(#id8)"><g clip-path="url(#id9)"><path fill="#f472b6" d="M 777.757812 175.523438 C 767.507812 165.269531 753.316406 160.414062 738.832031 162.191406 C 737.855469 162.308594 736.980469 162.804688 736.363281 163.582031 C 735.753906 164.355469 735.476562 165.324219 735.589844 166.296875 C 735.683594 167.117188 736.050781 167.886719 736.632812 168.464844 C 737.433594 169.265625 738.539062 169.648438 739.671875 169.507812 C 751.898438 168.007812 763.871094 172.109375 772.523438 180.761719 C 780.78125 189.019531 784.9375 200.46875 783.929688 212.171875 C 783.835938 213.253906 784.222656 214.3125 784.984375 215.078125 C 785.597656 215.691406 786.414062 216.066406 787.285156 216.132812 C 789.3125 216.289062 791.101562 214.769531 791.277344 212.742188 C 792.472656 198.875 787.542969 185.308594 777.757812 175.523438 Z M 776.636719 176.644531 C 786.097656 186.105469 790.855469 199.214844 789.699219 212.621094 C 789.601562 213.78125 788.582031 214.648438 787.421875 214.558594 C 786.902344 214.519531 786.445312 214.296875 786.105469 213.953125 C 785.683594 213.535156 785.445312 212.9375 785.503906 212.292969 C 786.550781 200.125 782.230469 188.222656 773.644531 179.640625 C 764.648438 170.644531 752.199219 166.378906 739.492188 167.941406 C 738.820312 168.023438 738.191406 167.78125 737.753906 167.34375 C 737.433594 167.023438 737.214844 166.59375 737.160156 166.105469 C 737.027344 164.953125 737.855469 163.902344 739.015625 163.757812 C 753.015625 162.039062 766.730469 166.738281 776.636719 176.644531 " fill-opacity="1" fill-rule="nonzero"/></g></g></g><g clip-path="url(#id10)"><g clip-path="url(#id11)"><g clip-path="url(#id12)"><path fill="#f687b3" d="M 738.566406 179.839844 C 738.109375 179.386719 737.820312 178.78125 737.746094 178.136719 C 737.566406 176.550781 738.707031 175.105469 740.292969 174.910156 C 750.847656 173.613281 761.1875 177.15625 768.660156 184.628906 C 775.894531 191.867188 779.472656 201.894531 778.472656 212.140625 C 778.394531 212.914062 778.023438 213.609375 777.425781 214.105469 C 776.828125 214.605469 776.074219 214.835938 775.308594 214.769531 C 774.632812 214.710938 774.003906 214.417969 773.53125 213.945312 C 772.921875 213.335938 772.621094 212.488281 772.703125 211.628906 C 773.539062 203.101562 770.5625 194.757812 764.546875 188.742188 C 758.332031 182.527344 749.734375 179.582031 740.953125 180.660156 C 740.066406 180.769531 739.195312 180.46875 738.566406 179.839844 " fill-opacity="1" fill-rule="nonzero"/></g></g></g><g clip-path="url(#id13)"><g clip-path="url(#id14)"><g clip-path="url(#id15)"><path fill="#f472b6" d="M 769.21875 184.066406 C 761.574219 176.425781 751 172.800781 740.207031 174.125 C 738.1875 174.375 736.730469 176.214844 736.960938 178.234375 C 737.054688 179.050781 737.425781 179.820312 738.003906 180.402344 C 738.804688 181.203125 739.914062 181.582031 741.042969 181.441406 C 749.578125 180.398438 757.941406 183.257812 763.984375 189.300781 C 769.835938 195.15625 772.726562 203.269531 771.917969 211.554688 C 771.8125 212.65625 772.191406 213.726562 772.96875 214.503906 C 773.570312 215.109375 774.378906 215.480469 775.226562 215.554688 C 776.207031 215.644531 777.167969 215.347656 777.929688 214.710938 C 778.6875 214.082031 779.160156 213.195312 779.257812 212.210938 C 780.28125 201.726562 776.621094 191.472656 769.21875 184.066406 Z M 768.097656 185.191406 C 775.167969 192.257812 778.664062 202.054688 777.683594 212.070312 C 777.570312 213.230469 776.542969 214.085938 775.382812 213.984375 C 774.875 213.9375 774.425781 213.714844 774.089844 213.382812 C 773.664062 212.957031 773.425781 212.347656 773.492188 211.695312 C 774.347656 202.933594 771.289062 194.363281 765.105469 188.179688 C 758.71875 181.792969 749.882812 178.769531 740.863281 179.875 C 740.195312 179.960938 739.566406 179.71875 739.125 179.28125 C 738.804688 178.960938 738.585938 178.53125 738.527344 178.039062 C 738.398438 176.886719 739.230469 175.835938 740.386719 175.695312 C 750.699219 174.425781 760.800781 177.890625 768.097656 185.191406 " fill-opacity="1" fill-rule="nonzero"/></g></g></g><g clip-path="url(#id16)"><g clip-path="url(#id17)"><g clip-path="url(#id18)"><path fill="#f687b3" d="M 762.839844 212.773438 C 762.238281 212.167969 761.933594 211.335938 762.011719 210.488281 C 762.472656 205.230469 760.609375 200.09375 756.902344 196.386719 C 753.199219 192.683594 748.066406 190.820312 742.820312 191.273438 C 741.96875 191.347656 741.136719 191.046875 740.535156 190.445312 C 740.054688 189.964844 739.757812 189.320312 739.707031 188.640625 C 739.644531 187.867188 739.886719 187.117188 740.390625 186.527344 C 740.894531 185.929688 741.597656 185.570312 742.367188 185.5 C 749.316406 184.898438 756.109375 187.367188 761.015625 192.269531 C 765.925781 197.179688 768.390625 203.984375 767.785156 210.945312 C 767.644531 212.535156 766.234375 213.730469 764.640625 213.605469 C 763.960938 213.550781 763.324219 213.253906 762.839844 212.773438 " fill-opacity="1" fill-rule="nonzero"/></g></g></g><g clip-path="url(#id19)"><g clip-path="url(#id20)"><g clip-path="url(#id21)"><path fill="#f472b6" d="M 761.578125 191.710938 C 756.511719 186.644531 749.484375 184.09375 742.304688 184.714844 C 741.324219 184.800781 740.433594 185.261719 739.792969 186.015625 C 739.148438 186.769531 738.839844 187.726562 738.917969 188.707031 C 738.988281 189.578125 739.363281 190.394531 739.972656 191.003906 C 740.738281 191.769531 741.796875 192.15625 742.882812 192.0625 C 747.894531 191.625 752.800781 193.40625 756.339844 196.945312 C 759.882812 200.492188 761.664062 205.402344 761.222656 210.425781 C 761.128906 211.507812 761.515625 212.566406 762.28125 213.332031 C 762.890625 213.945312 763.707031 214.320312 764.574219 214.394531 C 766.601562 214.550781 768.390625 213.03125 768.570312 211.007812 C 769.199219 203.816406 766.652344 196.785156 761.578125 191.710938 Z M 760.457031 192.832031 C 765.199219 197.578125 767.585938 204.15625 766.996094 210.882812 C 766.894531 212.042969 765.871094 212.910156 764.710938 212.816406 C 764.199219 212.773438 763.738281 212.550781 763.402344 212.210938 C 762.980469 211.789062 762.742188 211.191406 762.800781 210.550781 C 763.28125 205.0625 761.332031 199.695312 757.460938 195.824219 C 753.597656 191.957031 748.238281 190.011719 742.757812 190.484375 C 742.113281 190.542969 741.515625 190.304688 741.097656 189.882812 C 740.757812 189.546875 740.535156 189.089844 740.492188 188.570312 C 740.402344 187.410156 741.269531 186.390625 742.429688 186.289062 C 749.144531 185.703125 755.714844 188.089844 760.457031 192.832031 " fill-opacity="1" fill-rule="nonzero"/></g></g></g><g clip-path="url(#id22)"><g clip-path="url(#id23)"><g clip-path="url(#id24)"><path fill="#f687b3" d="M 751.589844 214.605469 C 747.996094 218.199219 742.191406 218.222656 738.628906 214.660156 C 735.066406 211.09375 735.085938 205.292969 738.683594 201.699219 C 742.277344 198.105469 748.082031 198.078125 751.644531 201.644531 C 755.207031 205.207031 755.183594 211.011719 751.589844 214.605469 " fill-opacity="1" fill-rule="nonzero"/></g></g></g><g clip-path="url(#id25)"><g clip-path="url(#id26)"><g clip-path="url(#id27)"><path fill="#f472b6" d="M 751.589844 214.605469 L 751.03125 214.050781 C 749.390625 215.691406 747.246094 216.515625 745.097656 216.527344 C 742.953125 216.535156 740.820312 215.730469 739.1875 214.097656 C 737.558594 212.46875 736.753906 210.332031 736.761719 208.1875 C 736.769531 206.039062 737.59375 203.898438 739.238281 202.253906 C 740.882812 200.609375 743.023438 199.785156 745.171875 199.777344 C 747.316406 199.765625 749.453125 200.574219 751.082031 202.203125 C 752.714844 203.835938 753.519531 205.96875 753.511719 208.113281 C 753.5 210.261719 752.675781 212.40625 751.03125 214.050781 L 752.144531 215.160156 C 756.050781 211.253906 756.074219 204.953125 752.207031 201.082031 C 748.335938 197.210938 742.03125 197.238281 738.125 201.144531 C 734.222656 205.046875 734.195312 211.347656 738.066406 215.21875 C 741.9375 219.089844 748.242188 219.066406 752.144531 215.160156 L 751.589844 214.605469 " fill-opacity="1" fill-rule="nonzero"/></g></g></g><g clip-path="url(#id28)"><path fill="#f472b6" d="M 773.542969 333.09375 C 773.542969 343.625 764.886719 352.242188 754.300781 352.242188 C 754.167969 352.242188 754.082031 352.105469 754.144531 351.984375 C 756.960938 346.449219 758.53125 340.199219 758.53125 333.558594 L 758.53125 321.289062 C 758.53125 320.027344 759.5625 319 760.839844 319 L 771.113281 319 C 772.449219 319 773.542969 320.089844 773.542969 321.417969 Z M 771.113281 314.519531 L 758.53125 314.519531 L 758.53125 312.34375 C 758.53125 311.09375 757.5 310.039062 756.214844 310.039062 L 692.957031 310.039062 L 692.957031 312.328125 L 756.214844 312.277344 L 756.214844 314.519531 L 756.242188 319 L 756.285156 333.558594 C 756.285156 340.328125 754.523438 346.691406 751.472656 352.242188 C 750.613281 353.8125 749.625 355.316406 748.542969 356.722656 C 741.457031 366.246094 730.097656 372.410156 717.289062 372.410156 L 708.289062 372.410156 C 686.757812 372.410156 669.292969 355.023438 669.292969 333.585938 L 669.292969 312.34375 L 688.464844 312.328125 L 688.464844 310.039062 L 669.363281 310.039062 C 668.078125 310.039062 667.046875 311.09375 667.046875 312.34375 L 667.046875 333.558594 C 667.046875 356.257812 685.527344 374.648438 708.316406 374.648438 L 717.289062 374.648438 C 731.105469 374.648438 743.320312 367.902344 750.777344 357.542969 C 751.152344 357.035156 751.734375 356.722656 752.359375 356.722656 L 754.324219 356.722656 C 767.417969 356.722656 778.042969 346.15625 778.042969 333.09375 L 778.042969 321.445312 C 778.042969 317.613281 774.9375 314.519531 771.113281 314.519531 " fill-opacity="1" fill-rule="nonzero"/></g><path fill="#f472b6" d="M 687.53125 358.25 C 690.980469 361.28125 695.046875 363.550781 699.382812 365.210938 C 701.601562 365.902344 703.824219 366.652344 706.148438 367.015625 C 708.429688 367.664062 710.804688 367.679688 713.164062 368.109375 C 711.984375 368.171875 710.785156 368.214844 709.582031 368.230469 C 708.382812 368.300781 707.1875 368.214844 705.992188 368.101562 C 703.570312 367.957031 701.230469 367.367188 698.847656 366.851562 C 694.171875 365.511719 689.757812 363.136719 686.046875 359.945312 C 682.363281 356.722656 679.371094 352.726562 677.394531 348.296875 C 675.382812 343.894531 674.332031 339.050781 674.539062 334.300781 C 674.929688 336.648438 675.371094 338.945312 676.1875 341.148438 C 676.515625 342.261719 677.003906 343.332031 677.402344 344.417969 C 677.914062 345.464844 678.382812 346.527344 678.9375 347.535156 C 681.183594 351.585938 684.035156 355.273438 687.53125 358.25 Z M 671.539062 332.261719 L 671.539062 333.566406 C 671.539062 353.746094 688.023438 370.15625 708.289062 370.15625 L 717.289062 370.15625 C 737.554688 370.15625 754.039062 353.746094 754.039062 333.574219 L 754.039062 332.261719 L 702.289062 332.261719 L 702.289062 333.335938 C 702.289062 336.398438 699.792969 338.894531 696.710938 338.894531 L 684.710938 338.894531 C 681.632812 338.894531 679.136719 336.398438 679.136719 333.335938 L 679.136719 332.261719 L 671.539062 332.261719 " fill-opacity="1" fill-rule="nonzero"/><g clip-path="url(#id29)"><path fill="#f472b6" d="M 693.019531 336.183594 C 690.199219 336.304688 687.390625 336.253906 684.589844 336.140625 C 683.964844 336.183594 683.011719 336.132812 682.429688 335.378906 C 681.917969 334.679688 681.851562 333.980469 681.753906 333.324219 C 681.503906 330.441406 681.503906 324.726562 681.804688 321.972656 C 684.574219 337.746094 679.074219 333.730469 693.019531 336.183594 Z M 680.261719 322.414062 L 680.261719 333.335938 C 680.261719 335.785156 682.257812 337.773438 684.710938 337.773438 L 696.710938 337.773438 C 699.175781 337.773438 701.160156 335.785156 701.160156 333.335938 L 701.160156 322.414062 C 701.160156 319.96875 699.175781 317.984375 696.710938 317.984375 L 691.839844 317.984375 L 691.839844 309.019531 C 691.839844 308.398438 691.335938 307.898438 690.710938 307.898438 C 690.085938 307.898438 689.585938 308.398438 689.585938 309.019531 L 689.585938 317.984375 L 684.710938 317.984375 C 682.257812 317.984375 680.261719 319.96875 680.261719 322.414062 " fill-opacity="1" fill-rule="nonzero"/></g><g clip-path="url(#id30)"><path fill="#f472b6" d="M 314.179688 316.363281 C 313.878906 316.363281 313.585938 316.421875 313.308594 316.535156 C 313.027344 316.652344 312.78125 316.820312 312.566406 317.035156 C 312.355469 317.25 312.191406 317.496094 312.074219 317.777344 C 311.957031 318.058594 311.898438 318.351562 311.898438 318.65625 L 311.898438 326.03125 C 311.902344 326.953125 311.855469 327.871094 311.765625 328.789062 C 311.675781 329.707031 311.542969 330.621094 311.363281 331.523438 C 311.183594 332.429688 310.960938 333.324219 310.695312 334.207031 C 310.429688 335.089844 310.121094 335.957031 309.769531 336.808594 C 309.421875 337.660156 309.027344 338.496094 308.597656 339.308594 C 308.164062 340.121094 307.695312 340.910156 307.183594 341.679688 C 306.675781 342.445312 306.128906 343.1875 305.546875 343.898438 C 304.964844 344.613281 304.351562 345.296875 303.703125 345.949219 C 303.054688 346.601562 302.375 347.21875 301.664062 347.804688 C 300.957031 348.390625 300.222656 348.9375 299.457031 349.449219 C 298.695312 349.964844 297.910156 350.4375 297.101562 350.871094 C 296.292969 351.308594 295.464844 351.699219 294.617188 352.054688 C 293.769531 352.40625 292.90625 352.71875 292.027344 352.984375 C 291.148438 353.253906 290.261719 353.476562 289.363281 353.65625 C 288.460938 353.835938 287.554688 353.972656 286.644531 354.0625 C 285.730469 354.152344 284.816406 354.199219 283.898438 354.199219 C 282.980469 354.199219 282.066406 354.152344 281.152344 354.0625 C 280.238281 353.972656 279.332031 353.835938 278.433594 353.65625 C 277.535156 353.476562 276.644531 353.253906 275.765625 352.984375 C 274.890625 352.71875 274.027344 352.40625 273.179688 352.054688 C 272.332031 351.699219 271.503906 351.308594 270.695312 350.871094 C 269.886719 350.4375 269.101562 349.964844 268.335938 349.449219 C 267.574219 348.9375 266.839844 348.390625 266.128906 347.804688 C 265.421875 347.21875 264.742188 346.601562 264.09375 345.949219 C 263.445312 345.296875 262.828125 344.613281 262.25 343.898438 C 261.667969 343.1875 261.121094 342.445312 260.609375 341.679688 C 260.101562 340.910156 259.632812 340.121094 259.199219 339.308594 C 258.765625 338.496094 258.375 337.660156 258.023438 336.808594 C 257.671875 335.957031 257.363281 335.089844 257.097656 334.207031 C 256.832031 333.324219 256.609375 332.429688 256.433594 331.523438 C 256.253906 330.621094 256.117188 329.707031 256.027344 328.789062 C 255.941406 327.871094 255.894531 326.953125 255.894531 326.03125 L 255.894531 318.65625 C 255.894531 318.351562 255.835938 318.058594 255.722656 317.777344 C 255.605469 317.496094 255.441406 317.25 255.226562 317.035156 C 255.015625 316.820312 254.765625 316.652344 254.488281 316.535156 C 254.207031 316.421875 253.917969 316.363281 253.617188 316.363281 C 253.3125 316.363281 253.023438 316.421875 252.742188 316.535156 C 252.464844 316.652344 252.21875 316.820312 252.003906 317.035156 C 251.789062 317.25 251.625 317.496094 251.507812 317.777344 C 251.394531 318.058594 251.335938 318.351562 251.335938 318.65625 L 251.335938 326.03125 C 251.335938 327.054688 251.386719 328.074219 251.484375 329.09375 C 251.578125 330.113281 251.722656 331.128906 251.914062 332.132812 C 252.105469 333.140625 252.34375 334.132812 252.625 335.117188 C 252.910156 336.101562 253.238281 337.070312 253.613281 338.019531 C 253.988281 338.972656 254.402344 339.90625 254.863281 340.820312 C 255.324219 341.730469 255.828125 342.621094 256.371094 343.488281 C 256.914062 344.355469 257.5 345.191406 258.121094 346.003906 C 258.742188 346.8125 259.398438 347.59375 260.09375 348.34375 C 260.789062 349.089844 261.515625 349.804688 262.277344 350.484375 C 263.039062 351.167969 263.832031 351.808594 264.652344 352.414062 C 265.472656 353.019531 266.320312 353.585938 267.195312 354.113281 C 268.066406 354.640625 268.964844 355.121094 269.882812 355.5625 C 270.800781 356.003906 271.738281 356.402344 272.695312 356.757812 C 273.648438 357.109375 274.621094 357.417969 275.605469 357.679688 C 276.589844 357.941406 277.582031 358.15625 278.589844 358.324219 C 279.59375 358.492188 280.601562 358.613281 281.617188 358.683594 L 281.617188 370.367188 L 267.457031 370.367188 C 267.152344 370.367188 266.863281 370.421875 266.582031 370.539062 C 266.304688 370.65625 266.058594 370.820312 265.84375 371.035156 C 265.628906 371.253906 265.464844 371.5 265.347656 371.78125 C 265.234375 372.0625 265.175781 372.355469 265.175781 372.65625 C 265.175781 372.960938 265.234375 373.253906 265.347656 373.535156 C 265.464844 373.816406 265.628906 374.0625 265.84375 374.28125 C 266.058594 374.496094 266.304688 374.660156 266.582031 374.777344 C 266.863281 374.894531 267.152344 374.949219 267.457031 374.949219 L 300.339844 374.949219 C 300.644531 374.949219 300.933594 374.894531 301.214844 374.777344 C 301.492188 374.660156 301.738281 374.496094 301.953125 374.28125 C 302.167969 374.0625 302.332031 373.816406 302.445312 373.535156 C 302.5625 373.253906 302.621094 372.960938 302.621094 372.65625 C 302.621094 372.355469 302.5625 372.0625 302.445312 371.78125 C 302.332031 371.5 302.167969 371.253906 301.953125 371.035156 C 301.738281 370.820312 301.492188 370.65625 301.214844 370.539062 C 300.933594 370.421875 300.644531 370.367188 300.339844 370.367188 L 286.179688 370.367188 L 286.179688 358.683594 C 287.195312 358.613281 288.203125 358.492188 289.210938 358.324219 C 290.214844 358.15625 291.207031 357.941406 292.191406 357.679688 C 293.175781 357.417969 294.148438 357.109375 295.101562 356.753906 C 296.058594 356.402344 296.996094 356.003906 297.914062 355.5625 C 298.832031 355.121094 299.730469 354.636719 300.601562 354.113281 C 301.476562 353.585938 302.324219 353.019531 303.144531 352.414062 C 303.964844 351.808594 304.757812 351.164062 305.519531 350.484375 C 306.28125 349.804688 307.007812 349.089844 307.703125 348.339844 C 308.394531 347.59375 309.054688 346.8125 309.675781 346.003906 C 310.296875 345.191406 310.878906 344.351562 311.425781 343.488281 C 311.96875 342.621094 312.46875 341.730469 312.929688 340.820312 C 313.390625 339.90625 313.808594 338.972656 314.183594 338.019531 C 314.558594 337.066406 314.886719 336.101562 315.167969 335.117188 C 315.453125 334.132812 315.691406 333.136719 315.882812 332.132812 C 316.074219 331.128906 316.214844 330.113281 316.3125 329.09375 C 316.410156 328.074219 316.457031 327.054688 316.460938 326.03125 L 316.460938 318.65625 C 316.460938 318.351562 316.402344 318.058594 316.285156 317.777344 C 316.171875 317.496094 316.007812 317.25 315.792969 317.035156 C 315.578125 316.820312 315.332031 316.652344 315.050781 316.535156 C 314.773438 316.421875 314.484375 316.363281 314.179688 316.363281 Z M 314.179688 316.363281 " fill-opacity="1" fill-rule="nonzero"/></g><g clip-path="url(#id31)"><path fill="#f472b6" d="M 268.941406 324.214844 L 273.597656 324.214844 C 273.898438 324.214844 274.191406 324.269531 274.46875 324.386719 C 274.75 324.503906 274.996094 324.667969 275.210938 324.882812 C 275.421875 325.101562 275.585938 325.347656 275.703125 325.628906 C 275.820312 325.910156 275.875 326.203125 275.875 326.507812 C 275.875 326.808594 275.820312 327.101562 275.703125 327.382812 C 275.585938 327.664062 275.421875 327.910156 275.210938 328.128906 C 274.996094 328.34375 274.75 328.507812 274.46875 328.625 C 274.191406 328.742188 273.898438 328.796875 273.597656 328.796875 L 262.652344 328.796875 C 262.667969 329.488281 262.714844 330.179688 262.792969 330.863281 C 262.871094 331.550781 262.984375 332.230469 263.128906 332.90625 C 263.277344 333.582031 263.453125 334.25 263.664062 334.90625 C 263.875 335.566406 264.113281 336.210938 264.386719 336.847656 C 264.660156 337.480469 264.960938 338.101562 265.292969 338.707031 C 265.625 339.3125 265.984375 339.898438 266.375 340.46875 C 266.761719 341.039062 267.179688 341.589844 267.621094 342.117188 C 268.0625 342.648438 268.527344 343.152344 269.019531 343.636719 C 269.507812 344.121094 270.023438 344.582031 270.558594 345.015625 C 271.089844 345.449219 271.644531 345.855469 272.21875 346.234375 C 272.792969 346.613281 273.386719 346.964844 273.992188 347.289062 C 274.601562 347.609375 275.222656 347.902344 275.859375 348.164062 C 276.496094 348.425781 277.144531 348.652344 277.800781 348.851562 C 278.460938 349.050781 279.128906 349.214844 279.800781 349.347656 C 280.476562 349.484375 281.15625 349.582031 281.839844 349.648438 C 282.523438 349.714844 283.207031 349.75 283.894531 349.75 C 284.582031 349.75 285.269531 349.714844 285.953125 349.648438 C 286.636719 349.582031 287.316406 349.484375 287.992188 349.347656 C 288.664062 349.214844 289.332031 349.050781 289.988281 348.851562 C 290.648438 348.652344 291.296875 348.425781 291.933594 348.164062 C 292.566406 347.902344 293.191406 347.609375 293.796875 347.289062 C 294.40625 346.964844 294.996094 346.613281 295.570312 346.234375 C 296.144531 345.855469 296.699219 345.449219 297.234375 345.015625 C 297.769531 344.582031 298.28125 344.121094 298.773438 343.636719 C 299.265625 343.152344 299.730469 342.648438 300.171875 342.117188 C 300.613281 341.589844 301.027344 341.039062 301.417969 340.46875 C 301.808594 339.898438 302.167969 339.3125 302.5 338.707031 C 302.832031 338.101562 303.132812 337.480469 303.40625 336.847656 C 303.675781 336.210938 303.917969 335.566406 304.128906 334.90625 C 304.339844 334.25 304.515625 333.582031 304.660156 332.90625 C 304.808594 332.230469 304.917969 331.550781 305 330.863281 C 305.078125 330.179688 305.125 329.488281 305.140625 328.796875 L 295.351562 328.796875 C 295.046875 328.796875 294.757812 328.742188 294.476562 328.625 C 294.199219 328.507812 293.953125 328.34375 293.738281 328.128906 C 293.523438 327.910156 293.359375 327.664062 293.242188 327.382812 C 293.128906 327.101562 293.070312 326.808594 293.070312 326.507812 C 293.070312 326.203125 293.128906 325.910156 293.242188 325.628906 C 293.359375 325.347656 293.523438 325.101562 293.738281 324.882812 C 293.953125 324.667969 294.199219 324.503906 294.476562 324.386719 C 294.757812 324.269531 295.046875 324.214844 295.351562 324.214844 L 305.164062 324.214844 L 305.164062 317.28125 L 295.351562 317.28125 C 295.046875 317.28125 294.757812 317.222656 294.476562 317.109375 C 294.199219 316.992188 293.953125 316.824219 293.738281 316.609375 C 293.523438 316.394531 293.359375 316.148438 293.242188 315.867188 C 293.128906 315.585938 293.070312 315.292969 293.070312 314.988281 C 293.070312 314.6875 293.128906 314.394531 293.242188 314.113281 C 293.359375 313.832031 293.523438 313.582031 293.738281 313.367188 C 293.953125 313.152344 294.199219 312.988281 294.476562 312.871094 C 294.757812 312.753906 295.046875 312.695312 295.351562 312.695312 L 305.164062 312.695312 L 305.164062 305.769531 L 295.351562 305.769531 C 295.046875 305.769531 294.757812 305.710938 294.476562 305.59375 C 294.199219 305.476562 293.953125 305.3125 293.738281 305.097656 C 293.523438 304.882812 293.359375 304.632812 293.242188 304.351562 C 293.128906 304.070312 293.070312 303.777344 293.070312 303.476562 C 293.070312 303.171875 293.128906 302.878906 293.242188 302.597656 C 293.359375 302.316406 293.523438 302.070312 293.738281 301.855469 C 293.953125 301.640625 294.199219 301.472656 294.476562 301.355469 C 294.757812 301.242188 295.046875 301.183594 295.351562 301.183594 L 305.164062 301.183594 L 305.164062 299.445312 C 305.160156 298.746094 305.121094 298.050781 305.046875 297.359375 C 304.976562 296.664062 304.867188 295.976562 304.730469 295.292969 C 304.589844 294.613281 304.417969 293.9375 304.210938 293.273438 C 304.007812 292.605469 303.769531 291.953125 303.5 291.308594 C 303.230469 290.667969 302.933594 290.039062 302.601562 289.425781 C 302.273438 288.8125 301.914062 288.21875 301.527344 287.640625 C 301.136719 287.0625 300.722656 286.503906 300.28125 285.96875 C 299.839844 285.429688 299.371094 284.914062 298.878906 284.425781 C 298.390625 283.933594 297.875 283.46875 297.335938 283.027344 C 296.800781 282.585938 296.242188 282.171875 295.664062 281.789062 C 295.085938 281.402344 294.492188 281.046875 293.878906 280.71875 C 293.269531 280.390625 292.640625 280.09375 292 279.828125 C 291.359375 279.5625 290.707031 279.332031 290.042969 279.128906 C 289.378906 278.925781 288.707031 278.757812 288.027344 278.625 C 287.347656 278.488281 286.664062 278.386719 285.972656 278.320312 C 285.28125 278.25 284.589844 278.214844 283.898438 278.214844 C 283.203125 278.214844 282.511719 278.25 281.824219 278.320312 C 281.132812 278.386719 280.449219 278.488281 279.769531 278.625 C 279.089844 278.757812 278.417969 278.925781 277.753906 279.128906 C 277.089844 279.332031 276.4375 279.5625 275.796875 279.828125 C 275.15625 280.09375 274.527344 280.390625 273.917969 280.71875 C 273.304688 281.046875 272.710938 281.402344 272.132812 281.789062 C 271.554688 282.171875 270.996094 282.585938 270.460938 283.027344 C 269.921875 283.46875 269.40625 283.933594 268.914062 284.425781 C 268.425781 284.914062 267.957031 285.429688 267.515625 285.96875 C 267.074219 286.503906 266.65625 287.0625 266.269531 287.640625 C 265.882812 288.21875 265.523438 288.8125 265.195312 289.425781 C 264.863281 290.039062 264.566406 290.667969 264.296875 291.308594 C 264.027344 291.953125 263.789062 292.605469 263.585938 293.273438 C 263.378906 293.9375 263.207031 294.613281 263.066406 295.292969 C 262.929688 295.976562 262.820312 296.664062 262.75 297.359375 C 262.675781 298.050781 262.636719 298.746094 262.632812 299.445312 L 262.632812 301.183594 L 273.597656 301.183594 C 273.898438 301.183594 274.191406 301.242188 274.46875 301.355469 C 274.75 301.472656 274.996094 301.640625 275.210938 301.855469 C 275.421875 302.070312 275.585938 302.316406 275.703125 302.597656 C 275.820312 302.878906 275.875 303.171875 275.875 303.476562 C 275.875 303.777344 275.820312 304.070312 275.703125 304.351562 C 275.585938 304.632812 275.421875 304.882812 275.210938 305.097656 C 274.996094 305.3125 274.75 305.476562 274.46875 305.59375 C 274.191406 305.710938 273.898438 305.769531 273.597656 305.769531 L 262.632812 305.769531 L 262.632812 312.695312 L 273.597656 312.695312 C 273.898438 312.695312 274.191406 312.753906 274.46875 312.871094 C 274.75 312.988281 274.996094 313.152344 275.210938 313.367188 C 275.421875 313.582031 275.585938 313.832031 275.703125 314.113281 C 275.820312 314.394531 275.875 314.6875 275.875 314.988281 C 275.875 315.292969 275.820312 315.585938 275.703125 315.867188 C 275.585938 316.148438 275.421875 316.394531 275.210938 316.609375 C 274.996094 316.824219 274.75 316.992188 274.46875 317.109375 C 274.191406 317.222656 273.898438 317.28125 273.597656 317.28125 L 262.632812 317.28125 L 262.632812 324.214844 Z M 281.617188 303.476562 C 281.617188 303.171875 281.675781 302.878906 281.792969 302.597656 C 281.90625 302.316406 282.074219 302.070312 282.285156 301.855469 C 282.5 301.640625 282.746094 301.472656 283.027344 301.355469 C 283.304688 301.242188 283.597656 301.183594 283.898438 301.183594 C 284.203125 301.183594 284.492188 301.242188 284.769531 301.355469 C 285.050781 301.472656 285.296875 301.640625 285.511719 301.855469 C 285.726562 302.070312 285.890625 302.316406 286.003906 302.597656 C 286.121094 302.878906 286.179688 303.171875 286.179688 303.476562 L 286.179688 306.082031 C 286.179688 306.386719 286.121094 306.679688 286.003906 306.960938 C 285.890625 307.238281 285.726562 307.488281 285.511719 307.703125 C 285.296875 307.917969 285.050781 308.082031 284.769531 308.199219 C 284.492188 308.316406 284.203125 308.375 283.898438 308.375 C 283.597656 308.375 283.304688 308.316406 283.027344 308.199219 C 282.746094 308.082031 282.5 307.917969 282.285156 307.703125 C 282.074219 307.488281 281.90625 307.238281 281.792969 306.960938 C 281.675781 306.679688 281.617188 306.386719 281.617188 306.082031 Z M 281.617188 313.351562 C 281.617188 313.050781 281.675781 312.757812 281.792969 312.476562 C 281.90625 312.195312 282.074219 311.945312 282.285156 311.730469 C 282.5 311.515625 282.746094 311.351562 283.027344 311.234375 C 283.304688 311.117188 283.597656 311.058594 283.898438 311.058594 C 284.203125 311.058594 284.492188 311.117188 284.769531 311.234375 C 285.050781 311.351562 285.296875 311.515625 285.511719 311.730469 C 285.726562 311.945312 285.890625 312.195312 286.003906 312.476562 C 286.121094 312.757812 286.179688 313.050781 286.179688 313.351562 L 286.179688 315.960938 C 286.179688 316.265625 286.121094 316.554688 286.003906 316.835938 C 285.890625 317.117188 285.726562 317.367188 285.511719 317.582031 C 285.296875 317.796875 285.050781 317.960938 284.769531 318.078125 C 284.492188 318.195312 284.203125 318.253906 283.898438 318.253906 C 283.597656 318.253906 283.304688 318.195312 283.027344 318.078125 C 282.746094 317.960938 282.5 317.796875 282.285156 317.582031 C 282.074219 317.367188 281.90625 317.117188 281.792969 316.835938 C 281.675781 316.554688 281.617188 316.265625 281.617188 315.960938 Z M 281.617188 323.230469 C 281.617188 322.925781 281.675781 322.632812 281.792969 322.351562 C 281.90625 322.074219 282.074219 321.824219 282.285156 321.609375 C 282.5 321.394531 282.746094 321.230469 283.027344 321.113281 C 283.304688 320.996094 283.597656 320.9375 283.898438 320.9375 C 284.203125 320.9375 284.492188 320.996094 284.769531 321.113281 C 285.050781 321.230469 285.296875 321.394531 285.511719 321.609375 C 285.726562 321.824219 285.890625 322.074219 286.003906 322.351562 C 286.121094 322.632812 286.179688 322.925781 286.179688 323.230469 L 286.179688 325.835938 C 286.179688 326.140625 286.121094 326.433594 286.003906 326.714844 C 285.890625 326.996094 285.726562 327.242188 285.511719 327.457031 C 285.296875 327.671875 285.050781 327.839844 284.769531 327.957031 C 284.492188 328.070312 284.203125 328.128906 283.898438 328.128906 C 283.597656 328.128906 283.304688 328.070312 283.027344 327.957031 C 282.746094 327.839844 282.5 327.671875 282.285156 327.457031 C 282.074219 327.242188 281.90625 326.996094 281.792969 326.714844 C 281.675781 326.433594 281.617188 326.140625 281.617188 325.835938 Z M 281.617188 323.230469 " fill-opacity="1" fill-rule="nonzero"/></g><g clip-path="url(#id32)"><path fill="#f472b6" d="M 217.550781 204.128906 C 221.464844 203.667969 225.007812 206.476562 225.46875 210.410156 C 225.929688 214.351562 223.132812 217.914062 219.214844 218.371094 C 215.292969 218.835938 211.753906 216.019531 211.292969 212.085938 C 210.839844 208.152344 213.636719 204.585938 217.550781 204.128906 Z M 205.796875 215.996094 L 201.824219 218.972656 L 206.289062 224.984375 L 210.261719 222.007812 L 216.1875 224.574219 L 216.757812 229.511719 L 224.171875 228.644531 L 223.59375 223.703125 L 228.769531 219.828125 L 233.320312 221.792969 L 236.269531 214.910156 L 231.71875 212.9375 L 230.96875 206.5 L 234.941406 203.523438 L 230.488281 197.515625 L 226.507812 200.496094 L 220.578125 197.929688 L 220.003906 192.984375 L 212.589844 193.851562 L 213.175781 198.800781 L 207.996094 202.667969 L 203.445312 200.699219 L 200.492188 207.585938 L 205.046875 209.554688 L 205.796875 215.996094 " fill-opacity="1" fill-rule="nonzero"/></g><g clip-path="url(#id33)"><path fill="#f472b6" d="M 222.671875 259.40625 C 221.128906 263.050781 216.9375 264.738281 213.3125 263.183594 C 209.683594 261.632812 208.003906 257.421875 209.546875 253.773438 C 211.089844 250.136719 215.285156 248.441406 218.90625 250 C 222.539062 251.554688 224.21875 255.757812 222.671875 259.40625 Z M 234.300781 258.148438 L 233.40625 250.714844 L 228.480469 251.308594 L 224.609375 246.121094 L 226.558594 241.550781 L 219.691406 238.605469 L 217.746094 243.183594 L 211.34375 243.964844 L 208.363281 239.980469 L 202.402344 244.476562 L 205.371094 248.460938 L 202.839844 254.425781 L 197.917969 255.023438 L 198.816406 262.464844 L 203.734375 261.871094 L 207.609375 267.058594 L 205.660156 271.628906 L 212.523438 274.578125 L 214.472656 270 L 220.875 269.222656 L 223.851562 273.199219 L 229.816406 268.703125 L 226.851562 264.71875 L 229.382812 258.757812 L 234.300781 258.148438 " fill-opacity="1" fill-rule="nonzero"/></g><g clip-path="url(#id34)"><path fill="#f472b6" d="M 180.273438 244.226562 C 173.640625 244.226562 168.257812 238.820312 168.257812 232.164062 C 168.257812 225.5 173.640625 220.097656 180.273438 220.097656 C 186.90625 220.097656 192.277344 225.5 192.277344 232.164062 C 192.277344 238.820312 186.90625 244.226562 180.273438 244.226562 Z M 199.164062 243.703125 L 201.753906 237.421875 L 207.585938 236.871094 L 207.585938 227.449219 L 201.753906 226.898438 L 199.164062 220.617188 L 202.898438 216.089844 L 196.265625 209.425781 L 191.757812 213.179688 L 185.507812 210.570312 L 184.960938 204.71875 L 175.578125 204.71875 L 175.03125 210.570312 L 168.777344 213.179688 L 164.273438 209.425781 L 157.636719 216.089844 L 161.375 220.617188 L 158.777344 226.898438 L 152.953125 227.449219 L 152.953125 236.871094 L 158.777344 237.421875 L 161.375 243.703125 L 157.636719 248.230469 L 164.273438 254.894531 L 168.777344 251.144531 L 175.039062 253.742188 L 175.578125 259.601562 L 184.960938 259.601562 L 185.507812 253.742188 L 191.757812 251.144531 L 196.265625 254.894531 L 202.898438 248.230469 L 199.164062 243.703125 " fill-opacity="1" fill-rule="nonzero"/></g></svg>