<svg xmlns="http://www.w3.org/2000/svg" xmlns:xlink="http://www.w3.org/1999/xlink" width="500" zoomAndPan="magnify" viewBox="0 0 375 374.999991" height="500" preserveAspectRatio="xMidYMid meet" version="1.0"><defs><clipPath id="id1"><path d="M 0 0.9375 L 375 0.9375 L 375 374.4375 L 0 374.4375 Z M 0 0.9375 " clip-rule="nonzero"/></clipPath></defs><g clip-path="url(#id1)"><path fill="#f472b6" d="M 355.679688 286.316406 L 282.578125 286.316406 L 282.578125 222 L 330.128906 198.269531 C 331.621094 197.523438 332.5625 196 332.5625 194.332031 L 332.5625 182.214844 C 332.5625 180.546875 331.621094 179.019531 330.128906 178.273438 L 189.464844 108.066406 C 188.226562 107.449219 186.773438 107.449219 185.539062 108.066406 L 44.875 178.273438 C 43.382812 179.019531 42.441406 180.546875 42.441406 182.214844 L 42.441406 194.332031 C 42.441406 196 43.382812 197.523438 44.875 198.269531 L 92.417969 222 L 92.417969 286.316406 L 19.320312 286.316406 C 13.664062 286.316406 9.0625 281.710938 9.0625 276.050781 L 9.0625 68.230469 L 365.9375 68.230469 L 365.9375 276.050781 C 365.9375 281.710938 361.335938 286.316406 355.679688 286.316406 Z M 191.433594 186.019531 C 190.355469 183.84375 187.710938 182.960938 185.539062 184.046875 L 136.574219 208.484375 C 129.078125 212.226562 124.417969 219.753906 124.40625 228.132812 L 51.230469 191.609375 L 51.230469 184.933594 L 187.5 116.921875 L 323.769531 184.933594 L 323.769531 191.609375 L 187.5 259.625 L 148.671875 240.246094 C 146.5 239.160156 143.863281 240.046875 142.777344 242.21875 C 141.695312 244.398438 142.578125 247.039062 144.75 248.121094 L 185.539062 268.480469 C 186.15625 268.789062 186.828125 268.945312 187.5 268.945312 C 188.171875 268.945312 188.84375 268.789062 189.464844 268.480469 L 273.789062 226.390625 L 273.789062 287.035156 C 268.535156 288.035156 263.28125 289.320312 258.019531 290.875 L 258.019531 254.507812 C 258.019531 252.074219 256.054688 250.105469 253.625 250.105469 C 251.195312 250.105469 249.226562 252.074219 249.226562 254.507812 L 249.226562 293.738281 C 229.019531 300.871094 208.609375 312.105469 187.5 327.675781 C 168.972656 314.011719 150.980469 303.675781 133.195312 296.527344 L 133.195312 228.175781 C 133.195312 223.136719 135.992188 218.609375 140.496094 216.359375 L 189.464844 191.921875 C 191.632812 190.835938 192.519531 188.195312 191.433594 186.019531 Z M 101.210938 287.035156 L 101.210938 226.390625 L 124.402344 237.964844 L 124.402344 293.253906 C 116.65625 290.585938 108.9375 288.507812 101.210938 287.035156 Z M 19.320312 9.726562 L 355.679688 9.726562 C 361.335938 9.726562 365.9375 14.332031 365.9375 19.996094 L 365.9375 59.429688 L 9.0625 59.429688 L 9.0625 19.996094 C 9.0625 14.332031 13.664062 9.726562 19.320312 9.726562 Z M 138.773438 339.960938 L 142.085938 365.648438 L 115.511719 365.648438 L 118.824219 339.960938 C 119.46875 334.953125 123.753906 331.179688 128.800781 331.179688 C 133.839844 331.179688 138.128906 334.953125 138.773438 339.960938 Z M 355.679688 0.925781 L 19.320312 0.925781 C 8.816406 0.925781 0.273438 9.480469 0.273438 19.996094 L 0.273438 276.050781 C 0.273438 286.5625 8.816406 295.117188 19.320312 295.117188 L 96.417969 295.117188 C 105.71875 296.6875 115.03125 299.175781 124.402344 302.585938 L 124.402344 322.921875 C 116.960938 324.71875 111.121094 330.953125 110.101562 338.835938 L 106.152344 369.484375 C 105.992188 370.742188 106.378906 372.003906 107.214844 372.953125 C 108.046875 373.902344 109.25 374.449219 110.511719 374.449219 L 147.082031 374.449219 C 148.347656 374.449219 149.550781 373.902344 150.382812 372.953125 C 151.21875 372.003906 151.605469 370.742188 151.441406 369.484375 L 147.492188 338.835938 C 146.480469 330.953125 140.636719 324.71875 133.195312 322.921875 L 133.195312 306.050781 C 150.050781 313.199219 167.164062 323.339844 184.859375 336.652344 C 185.074219 336.8125 185.300781 336.945312 185.535156 337.0625 C 185.582031 337.089844 185.636719 337.105469 185.691406 337.128906 C 185.921875 337.238281 186.152344 337.316406 186.394531 337.378906 C 186.46875 337.398438 186.542969 337.417969 186.617188 337.433594 C 186.910156 337.492188 187.199219 337.535156 187.496094 337.535156 C 187.5 337.535156 187.5 337.535156 187.5 337.535156 C 187.503906 337.535156 187.503906 337.535156 187.503906 337.535156 C 187.800781 337.535156 188.09375 337.492188 188.386719 337.433594 C 188.457031 337.417969 188.53125 337.398438 188.605469 337.382812 C 188.84375 337.316406 189.082031 337.234375 189.316406 337.128906 C 189.367188 337.105469 189.417969 337.089844 189.464844 337.066406 C 189.699219 336.949219 189.925781 336.8125 190.144531 336.652344 C 220.808594 313.578125 249.742188 299.996094 278.582031 295.117188 L 355.679688 295.117188 C 366.183594 295.117188 374.726562 286.5625 374.726562 276.050781 L 374.726562 19.996094 C 374.726562 9.480469 366.183594 0.925781 355.679688 0.925781 " fill-opacity="1" fill-rule="nonzero"/></g><path fill="#f472b6" d="M 32.183594 39.714844 C 35.011719 39.714844 37.3125 37.414062 37.3125 34.578125 C 37.3125 31.746094 35.011719 29.445312 32.183594 29.445312 C 29.347656 29.445312 27.050781 31.746094 27.050781 34.578125 C 27.050781 37.414062 29.347656 39.714844 32.183594 39.714844 " fill-opacity="1" fill-rule="nonzero"/><path fill="#f472b6" d="M 55.261719 39.714844 C 58.089844 39.714844 60.386719 37.414062 60.386719 34.578125 C 60.386719 31.746094 58.089844 29.445312 55.261719 29.445312 C 52.425781 29.445312 50.132812 31.746094 50.132812 34.578125 C 50.132812 37.414062 52.425781 39.714844 55.261719 39.714844 " fill-opacity="1" fill-rule="nonzero"/><path fill="#f472b6" d="M 78.335938 39.714844 C 81.171875 39.714844 83.464844 37.414062 83.464844 34.578125 C 83.464844 31.746094 81.171875 29.445312 78.335938 29.445312 C 75.503906 29.445312 73.210938 31.746094 73.210938 34.578125 C 73.210938 37.414062 75.503906 39.714844 78.335938 39.714844 " fill-opacity="1" fill-rule="nonzero"/></svg>